<?xml version="1.0" encoding="UTF-8" standalone="no"?>
<!-- Created with Inkscape (http://www.inkscape.org/) -->

<svg
   xmlns:dc="http://purl.org/dc/elements/1.1/"
   xmlns:cc="http://creativecommons.org/ns#"
   xmlns:rdf="http://www.w3.org/1999/02/22-rdf-syntax-ns#"
   xmlns:svg="http://www.w3.org/2000/svg"
   xmlns="http://www.w3.org/2000/svg"
   xmlns:sodipodi="http://sodipodi.sourceforge.net/DTD/sodipodi-0.dtd"
   xmlns:inkscape="http://www.inkscape.org/namespaces/inkscape"
   width="75"
   height="50"
   id="svg3081"
   version="1.1"
   inkscape:version="0.48.2 r9819"
   sodipodi:docname="New document 7">
  <defs
     id="defs3083" />
  <sodipodi:namedview
     id="base"
     pagecolor="#ffffff"
     bordercolor="#666666"
     borderopacity="1.0"
     inkscape:pageopacity="0.0"
     inkscape:pageshadow="2"
     inkscape:zoom="4.9733333"
     inkscape:cx="37.5"
     inkscape:cy="28.875592"
     inkscape:current-layer="layer1"
     showgrid="true"
     inkscape:grid-bbox="true"
     inkscape:document-units="px"
     inkscape:window-width="858"
     inkscape:window-height="576"
     inkscape:window-x="354"
     inkscape:window-y="66"
     inkscape:window-maximized="0" />
  <metadata
     id="metadata3086">
    <rdf:RDF>
      <cc:Work
         rdf:about="">
        <dc:format>image/svg+xml</dc:format>
        <dc:type
           rdf:resource="http://purl.org/dc/dcmitype/StillImage" />
        <dc:title></dc:title>
      </cc:Work>
    </rdf:RDF>
  </metadata>
  <g
     id="layer1"
     inkscape:label="Layer 1"
     inkscape:groupmode="layer"
     transform="translate(0,2)">
    <rect
       style="fill:#71a9d5;fill-opacity:1;stroke:#000000;stroke-opacity:1"
       id="rect5311"
       width="12.667561"
       height="36.193031"
       x="33.620247"
       y="-0.59072065"
       transform="matrix(0.98881875,0.14912237,-0.14912237,0.98881875,0,0)" />
    <path
       sodipodi:type="arc"
       style="fill:#71a9d5;fill-opacity:1;fill-rule:evenodd;stroke:#000000;stroke-width:1px;stroke-linecap:butt;stroke-linejoin:miter;stroke-opacity:1"
       id="path3089"
       sodipodi:cx="14.52514"
       sodipodi:cy="22.346369"
       sodipodi:rx="7.5418992"
       sodipodi:ry="4.6089387"
       d="m 22.067039,22.346369 a 7.5418992,4.6089387 0 1 1 -15.0837984,0 7.5418992,4.6089387 0 1 1 15.0837984,0 z"
       transform="matrix(4.0211598,0,0,1.6781693,-20.160434,-15.00547)" />
    <path
       sodipodi:type="arc"
       style="fill:#ff0000;fill-rule:evenodd;stroke:#000000;stroke-width:1px;stroke-linecap:butt;stroke-linejoin:miter;stroke-opacity:1"
       id="path5317"
       sodipodi:cx="21.414209"
       sodipodi:cy="25.368633"
       sodipodi:rx="2.7144773"
       sodipodi:ry="2.3123324"
       d="m 24.128687,25.368633 a 2.7144773,2.3123324 0 1 1 -5.428955,0 2.7144773,2.3123324 0 1 1 5.428955,0 z"
       transform="matrix(1,0,0,-1,0.60321715,47.530833)" />
    <path
       sodipodi:type="arc"
       style="fill:#ff0000;fill-rule:evenodd;stroke:#000000;stroke-width:1px;stroke-linecap:butt;stroke-linejoin:miter;stroke-opacity:1"
       id="path5363"
       sodipodi:cx="31.769438"
       sodipodi:cy="24.865952"
       sodipodi:rx="2.8150134"
       sodipodi:ry="2.4128687"
       d="m 34.584451,24.865952 a 2.8150134,2.4128687 0 1 1 -5.630027,0 2.8150134,2.4128687 0 1 1 5.630027,0 z"
       transform="translate(0,-2)" />
    <path
       sodipodi:type="arc"
       style="fill:#ff0000;fill-rule:evenodd;stroke:#000000;stroke-width:1px;stroke-linecap:butt;stroke-linejoin:miter;stroke-opacity:1"
       id="path5365"
       sodipodi:cx="42.225201"
       sodipodi:cy="24.765415"
       sodipodi:rx="3.2171581"
       sodipodi:ry="2.1112599"
       d="m 45.442359,24.765415 a 3.2171581,2.1112599 0 1 1 -6.434316,0 3.2171581,2.1112599 0 1 1 6.434316,0 z"
       transform="translate(0,-2)" />
    <path
       sodipodi:type="arc"
       style="fill:#ff0000;fill-rule:evenodd;stroke:#000000;stroke-width:1px;stroke-linecap:butt;stroke-linejoin:miter;stroke-opacity:1"
       id="path5367"
       sodipodi:cx="52.982574"
       sodipodi:cy="24.765415"
       sodipodi:rx="2.7144773"
       sodipodi:ry="1.9101877"
       d="m 55.697052,24.765415 a 2.7144773,1.9101877 0 1 1 -5.428955,0 2.7144773,1.9101877 0 1 1 5.428955,0 z"
       transform="translate(0,-2)" />
  </g>
</svg>
